<svg width="146" height="62" viewBox="0 0 146 62" fill="none" xmlns="http://www.w3.org/2000/svg">
<path d="M49.8923 8.32837H10.6154V41.6418H49.8923V8.32837Z" fill="#B8CFFB"/>
<path d="M41.4 41.6418C50.1941 41.6418 57.3231 32.32 57.3231 20.8209C57.3231 9.32183 50.1941 0 41.4 0C32.6059 0 25.4769 9.32183 25.4769 20.8209C25.4769 32.32 32.6059 41.6418 41.4 41.6418Z" fill="#B691FF"/>
<path d="M22.8231 52.7463C35.4279 52.7463 45.6462 44.8745 45.6462 35.1642C45.6462 25.4539 35.4279 17.5821 22.8231 17.5821C10.2182 17.5821 0 25.4539 0 35.1642C0 44.8745 10.2182 52.7463 22.8231 52.7463Z" fill="#4D18B4"/>
<path d="M23.4643 35.1642L19.1077 23.5045H22.4516L25.4133 32.0827L28.375 23.5045H31.7188L27.3622 35.1642H23.4643ZM40.7024 32.5991H45.4793V35.1642H37.6452V23.5045H40.7024V32.5991Z" fill="#DBC8FF"/>
<path d="M56.2 23.8H58.76V35H56.84L52.52 28.92V35H49.96V23.8H51.88L56.2 29.88V23.8ZM66.6788 32.536H71.1588V35H64.1188V23.8H71.0788V26.264H66.6788V28.12H70.6788V30.552H66.6788V32.536ZM83.5631 23.8V26.264H80.6831V35H78.1231V26.264H75.2431V23.8H83.5631ZM90.4117 35L87.3237 23.8H90.0117L91.9478 31.64L94.1077 23.8H96.1877L98.3478 31.64L100.284 23.8H102.972L99.8837 35H96.9718L95.1477 28.392L93.3238 35H90.4117ZM116.52 33.544C115.389 34.664 114.013 35.224 112.392 35.224C110.771 35.224 109.395 34.664 108.264 33.544C107.133 32.424 106.568 31.0427 106.568 29.4C106.568 27.7573 107.133 26.376 108.264 25.256C109.395 24.136 110.771 23.576 112.392 23.576C114.013 23.576 115.389 24.136 116.52 25.256C117.651 26.376 118.216 27.7573 118.216 29.4C118.216 31.0427 117.651 32.424 116.52 33.544ZM110.056 31.8C110.685 32.4187 111.464 32.728 112.392 32.728C113.32 32.728 114.093 32.4187 114.712 31.8C115.341 31.1813 115.656 30.3813 115.656 29.4C115.656 28.4187 115.341 27.6187 114.712 27C114.093 26.3813 113.32 26.072 112.392 26.072C111.464 26.072 110.685 26.3813 110.056 27C109.437 27.6187 109.128 28.4187 109.128 29.4C109.128 30.3813 109.437 31.1813 110.056 31.8ZM128.985 35L126.873 31.32H125.657V35H123.097V23.8H127.577C128.644 23.8 129.551 24.1733 130.297 24.92C131.044 25.6667 131.417 26.5733 131.417 27.64C131.417 28.3227 131.225 28.9573 130.841 29.544C130.468 30.12 129.972 30.568 129.353 30.888L131.737 35H128.985ZM125.657 26.2V29.08H127.577C127.929 29.08 128.228 28.9413 128.473 28.664C128.729 28.3867 128.857 28.0453 128.857 27.64C128.857 27.2347 128.729 26.8933 128.473 26.616C128.228 26.3387 127.929 26.2 127.577 26.2H125.657ZM145.437 35H142.525L138.941 29.816V35H136.381V23.8H138.941V28.664L142.365 23.8H145.277L141.501 29.256L145.437 35Z" fill="#36117E"/>
</svg>
